<?xml version="1.0" encoding="UTF-8"?>
<svg id="Layer_2" data-name="Layer 2" xmlns="http://www.w3.org/2000/svg" viewBox="0 0 158.17 170.51">
  <defs>
    <style>
      .cls-1 {
        fill: #fff;
        stroke-width: 0px;
      }
    </style>
  </defs>
  <g id="Layer_2-2" data-name="Layer 2">
    <path class="cls-1" d="m156.98,114.34l-22.2-19c-.89-.76-1.3-1.92-1.14-3.08.35-2.49.53-5.03.53-7.61s-.19-5.22-.55-7.76c-.16-1.16.25-2.33,1.14-3.09l21.78-18.65c1.11-.95,1.51-2.53.92-3.87-2.87-6.6-6.54-12.77-10.9-18.38-.88-1.13-2.41-1.55-3.77-1.07l-26.9,9.49c-1.1.39-2.31.16-3.23-.55-4-3.1-8.43-5.67-13.19-7.6-1.08-.44-1.88-1.37-2.1-2.52l-5.1-27.31c-.27-1.43-1.42-2.55-2.87-2.73-3.32-.4-6.7-.6-10.13-.6-3.94,0-7.82.28-11.62.8-1.42.2-2.55,1.31-2.82,2.72l-5.07,27.19c-.21,1.14-1.01,2.08-2.09,2.52-4.71,1.93-9.1,4.48-13.06,7.57-.92.72-2.13.94-3.23.55l-25.92-9.14c-1.36-.48-2.89-.06-3.77,1.09-4.43,5.76-8.14,12.1-10.99,18.89-.56,1.34-.17,2.89.93,3.83l20.91,17.91c.89.76,1.3,1.92,1.14,3.08-.35,2.5-.54,5.04-.54,7.63s.18,5.05.52,7.5c.16,1.15-.25,2.3-1.14,3.06L1.19,113.46c-1.09.93-1.49,2.46-.95,3.79,2.73,6.74,6.31,13.05,10.59,18.8.87,1.17,2.42,1.62,3.8,1.13l26.59-9.38c1.1-.39,2.32-.16,3.24.56,4.01,3.14,8.46,5.74,13.24,7.69,1.08.44,1.88,1.37,2.09,2.52l5.31,28.44c.26,1.42,1.4,2.53,2.83,2.72,3.71.5,7.5.76,11.34.76,3.3,0,6.56-.2,9.76-.57,1.49-.17,2.7-1.27,2.97-2.74l5.33-28.55c.21-1.15,1.02-2.08,2.1-2.52,4.83-1.95,9.32-4.57,13.37-7.73.92-.72,2.13-.95,3.23-.56l27.58,9.73c1.37.48,2.92.05,3.8-1.12,4.22-5.6,7.76-11.74,10.5-18.29.56-1.34.16-2.89-.94-3.83Zm-78.4,2.39c-17,0-30.78-13.78-30.78-30.78s13.78-30.78,30.78-30.78,30.78,13.78,30.78,30.78-13.78,30.78-30.78,30.78Z"/>
  </g>
</svg>